<svg xmlns="http://www.w3.org/2000/svg" viewBox="0 0 459.75 79.8"><defs><style>.cls-1{fill:#fff}</style></defs><title>intro-text-sedona</title><g id="Слой_2" data-name="Слой 2"><path class="cls-1" d="M44.47 21.74a20.46 20.46 0 0 0-12.9-5c-3.57 0-8.34 2.08-8.34 6.25 0 4.37 5.26 6.06 8.64 7.15l5 1.49C47.25 34.74 55.29 40 55.29 52.11c0 7.45-1.79 15.09-7.74 20.15s-13.7 7-21.24 7A46.18 46.18 0 0 1 0 70.77l8.34-15.68c4.86 4.27 10.66 7.74 17.27 7.74 4.57 0 9.43-2.28 9.43-7.54 0-5.46-7.64-7.34-11.81-8.54C11 43.27 3 40.1 3 25.61 3 10.42 13.8.5 28.79.5a51.19 51.19 0 0 1 23.42 6.15zM91.83 19v12.46h21.94v16.48H91.83v12.9H115v16.48H72.38V2.48H115V19H91.83zm37.59-16.52H157c20.84 0 38 16.38 38 37.42s-17.27 37.42-38 37.42h-27.58zm19.46 58.36h4.37c11.61 0 21.54-6.35 21.54-20.94 0-13.4-8.83-20.94-21.34-20.94h-4.56zm137.99-22.33c0 24.22-17.37 41.29-41.39 41.29s-41.39-17.07-41.39-41.29C204.09 15.88 223.94 0 245.48 0s41.39 15.88 41.39 38.51zm-62.53.1c0 12.9 9.53 22.33 21.14 22.33s21.14-9.43 21.14-22.33c0-10.32-9.53-19.75-21.14-19.75s-21.14 9.43-21.14 19.75zm72.9-36.13h19.45l35.64 45.76h.2V2.48H372v74.84h-19.48l-35.63-45.86h-.2v45.86h-19.45zm110.1 61.84l-5.16 13h-20.64l28.78-74.84h21.24l28.19 74.84H439l-4.86-13zm13.6-38.71h-.2l-8 23.82h16.18z" id="Layer_1" data-name="Layer 1"/></g></svg>