<svg xmlns="http://www.w3.org/2000/svg" viewBox="0 0 459.75 350.08"><defs><style>.cls-1{fill:#766458}.cls-2{fill:#81b3d3}.cls-3{fill:#fff}</style></defs><title>intro-text</title><g id="Layer_1"><path class="cls-1" d="M165.42 70l-.2.23a6.45 6.45 0 0 1-4.52 2.22l2.82-4.86c1.81-3.14.14-6.1-2.68-6.1-2.3 0-4.09.92-5.81 3.92L153.56 68l-1.23 2.1-.15.18c-2.16 2.51-4.26 4.49-5.59 4.49-.66 0-1-.46-.35-1.64l6.42-11.2h2.45l.86-1.44h-2.47l2.82-4.89h-3l-2.82 4.89h-2.7l-.86 1.44h2.73l-6 10.42c-1.27 2.22-.37 4.26 2 4.26 1.74 0 3.66-1.31 5.51-3.08 0 3.82 5.3 4.56 8.54.46h.66a9.08 9.08 0 0 0 6.16-2.99 2.57 2.57 0 0 0-1.12-1zm-6.39.2h-.14a1.77 1.77 0 0 0-1.76 1.8 2 2 0 0 0 .29 1v.06c-1.41 2.42-4.84 2-3.05-1.15l2.24-3.91 1.39-2.49c2.1-3.57 5-2.16 3.17.95zm47.85-.2l-.2.23c-2.16 2.51-4.92 4.49-7 4.49-1.84 0-2.94-1.15-1.55-3.57l.29-.52c1.93.81 5.56.43 7.8-3.46l.43-.75c1.61-2.76.06-4.84-2.39-4.84a6.33 6.33 0 0 0-5.65 3.42l-2.91 5-.17.2c-2.16 2.5-4.26 4.49-5.59 4.49-.66 0-1-.46-.35-1.64l4.32-7.57c1.29-2.27.06-3.92-1.61-3.92-1.3 0-2.68.72-4.18 2.27l4.78-8.32h-3L181.57 70l-.17.19c-2.16 2.51-4.26 4.49-5.59 4.49-.66 0-1-.46-.35-1.64l6.42-11.2h2.45l.86-1.44h-2.48l2.82-4.89h-3l-2.82 4.9H177l-.86 1.44h2.73l-6 10.42c-1.27 2.22-.37 4.26 2 4.26a6.7 6.7 0 0 0 3.82-1.63l-.69 1.37h3l4.55-7.92c4.61-5.79 6.65-5 5.35-2.82L187 72.3c-1.27 2.22-.37 4.26 2 4.26 1.78 0 3.76-1.37 5.65-3.22.14 1.86 1.65 3.22 4.05 3.22 3.4 0 6.77-2.65 9.24-5.53a2.55 2.55 0 0 0-1.06-1.03zm-5.7-4.2c1.73-3 4.78-2.48 3 .63l-.43.75c-1.44 2.45-3.37 2.39-4.49 2zM316 70l-.2.23a18.8 18.8 0 0 1-3.6 3.25c1-2.85.75-7.23 2.59-11.06l-2.25-1.21c-1.24 1.7-3.94 5.62-6.65 8.78l-.2.23c-2.16 2.51-4.26 4.49-5.59 4.49-.66 0-1-.46-.34-1.64l6.39-11.2h-3l-5.33 9.3c-2.27 2.07-4 3.22-4.61 3-.75-.31 0-1.44.38-2.07l5.84-10.19h-3L291.8 70l-.2.23a6.45 6.45 0 0 1-4.52 2.22l2.82-4.87c1.81-3.14.15-6.1-2.68-6.1-2.3 0-4.09.92-5.82 3.92l-1.46 2.6-1.23 2.1-.15.18c-2.16 2.51-4.92 4.49-7 4.49-1.84 0-2.94-1.15-1.56-3.57l.29-.52c1.93.81 5.56.43 7.8-3.45l.43-.75c1.61-2.76.06-4.84-2.39-4.84A6.34 6.34 0 0 0 270.5 65l-2.9 5-.17.2c-2.48 2.85-4.61 4.69-7 5.7l6.71-11.46h-1.76a3.17 3.17 0 0 0-3.14-2.88 6.65 6.65 0 0 0-5.1 3.44l-2.87 5-.2.23c-2.16 2.5-4.26 4.49-5.59 4.49-.66 0-1-.46-.35-1.64l3-5.24a3.06 3.06 0 0 0-.43-4.06l-1.67-2a1.17 1.17 0 0 1 .17-1.78l-1.55-1.7c-1.7 1.52-1.84 3.23-.78 4.61l.26.35c-1.32 1.87-3.11 4.4-5.07 6.71l-.2.23a6.46 6.46 0 0 1-4.52 2.22l2.82-4.87c1.81-3.14.14-6.1-2.68-6.1-2.3 0-4.09.92-5.81 3.92L230.19 68 229 70.06l-.15.17c-2.48 2.85-4.61 4.69-7 5.7l6.71-11.46h-1.76a3.17 3.17 0 0 0-3.14-2.88 6.65 6.65 0 0 0-5.12 3.41l-4.2 7.26c-1.27 2.22-.37 4.26 2 4.26a5.71 5.71 0 0 0 2.85-1l-.8 1.48c-4 1.24-6.56 2.88-6.56 5.12 0 2.88 4.4 3.48 6.56-.2l2.27-3.95a18.24 18.24 0 0 0 7.18-4.48c0 3.83 5.29 4.58 8.54.48h.62a9.08 9.08 0 0 0 6.18-2.97c1.44-1.67 2.56-3.17 5-6.42l.4.49a1.47 1.47 0 0 1 .17 1.7l-3.17 5.5c-1.27 2.22-.37 4.26 2 4.26 1.52 0 3.18-1 4.8-2.43a2.31 2.31 0 0 0 2.6 2.43 5.71 5.71 0 0 0 2.85-1L257 77c-4 1.24-6.56 2.88-6.56 5.12 0 2.88 4.4 3.48 6.56-.2l2.27-3.94a18.44 18.44 0 0 0 7.32-4.62c.13 1.88 1.65 3.24 4.06 3.24s4.86-1.37 6.95-3.2c-.12 3.92 5.27 4.72 8.54.58h.66a8.39 8.39 0 0 0 3.33-.86c-.81 2.08-.06 3.48 1.65 3.48s3.48-1.5 4.92-2.88a2.34 2.34 0 0 0 2.56 2.88c2.48 0 5.33-2.65 7.8-5.53 1.7-2 3.2-4.06 4.26-5.47-1.18 3.11-.55 8.69-3.4 8.69a1.67 1.67 0 0 1-1.41-1.09l-1.87 1a3.27 3.27 0 0 0 3.28 2.42 7.46 7.46 0 0 0 .83-.06h.09c3.05-.4 6.07-2.82 8.32-5.44A1.89 1.89 0 0 0 316 70zm-43-4.2c1.73-3 4.78-2.48 3 .63l-.43.75c-1.44 2.45-3.37 2.39-4.49 2zm-57.11 15.6c-.63 1.12-1.64 1-1.64.14s.72-1.67 3-2.56zm1.38-6.68c-.66 0-1-.46-.35-1.64l4.18-7.29c1.61-2.79 4.81-2.07 3.34.63l-2.27 4c-1.82 2.89-3.63 4.3-4.9 4.3zm18.4-4.52h-.15a1.77 1.77 0 0 0-1.76 1.8 2 2 0 0 0 .29 1v.06c-1.41 2.42-4.84 2-3.05-1.15l2.25-3.91 1.44-2.45c2.1-3.57 5-2.16 3.17.95zm18.83 11.2c-.63 1.12-1.64 1-1.64.14s.72-1.67 3-2.56zm1.38-6.68c-.66 0-1-.46-.35-1.64l4.18-7.29c1.61-2.79 4.81-2.07 3.34.63l-2.27 4c-1.78 2.89-3.64 4.3-4.91 4.3zm29.54-4.52h-.15a1.77 1.77 0 0 0-1.76 1.8 2 2 0 0 0 .29 1v.06c-1.41 2.42-4.84 2-3.05-1.15L283 68l1.44-2.45c2.1-3.57 5-2.16 3.17.95zm-184-3.38h28.92v1.96h-28.92zm227 0h28.92v1.96h-28.92z"/><path class="cls-2" d="M163.18 0h7.71l-1.21 44.92h-14.52l-2-18.54-2 18.54h-14.54L135.47 0h7.65l.64 37.15h.83L149.36 0h7.58l4.91 37.15h.76zM195 37.15v7.77h-20.9V0H195v7.7h-13.22v10.84h10.57v7.7h-10.57v10.91zm21.37 0v7.77h-18.28V0h7.65v37.15zm16.25-8.79l7.71-1.8v13.6a4.8 4.8 0 0 1-4.71 4.75h-11.48a4.76 4.76 0 0 1-4.71-4.75V4.75A4.72 4.72 0 0 1 224.14 0h11.47a4.76 4.76 0 0 1 4.71 4.75v9.11l-7.71 1.8v-8h-5.54v29.49h5.54v-8.79zM261.09 0a4.76 4.76 0 0 1 4.72 4.75v35.42a4.81 4.81 0 0 1-4.72 4.75h-11.47a4.76 4.76 0 0 1-4.71-4.75V4.75A4.72 4.72 0 0 1 249.62 0zm-3 7.7h-5.54v29.45h5.54zM290.84 0h7.58v44.92h-7.65V22.84l-3.06 11.42h-7.45l-3-11.42v22.08h-7.65V0h7.58L284 21.69zm32.29 37.15v7.77h-20.9V0h20.9v7.7h-13.25v10.84h10.58v7.7h-10.58v10.91z"/><path class="cls-3" d="M44.47 157.61a20.46 20.46 0 0 0-12.9-5c-3.57 0-8.34 2.08-8.34 6.25 0 4.37 5.26 6.06 8.64 7.15l5 1.49c10.42 3.08 18.46 8.34 18.46 20.45 0 7.45-1.79 15.09-7.74 20.15s-13.7 7-21.24 7A46.18 46.18 0 0 1 0 206.64L8.34 191c4.87 4.27 10.62 7.74 17.27 7.74 4.57 0 9.43-2.28 9.43-7.54 0-5.46-7.64-7.34-11.81-8.54C11 179.15 3 176 3 161.48c0-15.19 10.82-25.11 25.81-25.11a51.19 51.19 0 0 1 23.43 6.15zm47.36-2.78v12.51h21.94v16.48H91.83v12.9H115v16.48H72.38v-74.85H115v16.48H91.83zm37.59-16.48H157c20.84 0 38 16.38 38 37.42s-17.27 37.42-38 37.42h-27.58zm19.46 58.36h4.37c11.61 0 21.54-6.35 21.54-20.94 0-13.4-8.83-20.94-21.34-20.94h-4.56zm137.99-22.33c0 24.22-17.37 41.29-41.39 41.29s-41.39-17.07-41.39-41.29c0-22.63 19.85-38.51 41.39-38.51s41.39 15.88 41.39 38.51zm-62.53.1c0 12.9 9.53 22.33 21.14 22.33s21.14-9.43 21.14-22.33c0-10.32-9.53-19.75-21.14-19.75s-21.14 9.43-21.14 19.75zm72.9-36.13h19.45l35.64 45.76h.2v-45.76H372v74.84h-19.48l-35.63-45.86h-.2v45.86h-19.45zm110.1 61.84l-5.16 13h-20.64l28.79-74.84h21.24l28.19 74.84H439l-4.86-13zm13.6-38.71h-.2l-8 23.82h16.18zM108.08 287.74c7.66-2.59 8.24-12.18.69-12.18-2.08 0-4.56 1.46-6.27 4.45l-10.21 17.65a14.72 14.72 0 0 1-1.46 2.15c-2.63-3.61-1.86-9 1.82-11.38l-1.53-1.93c-8 5.07-5.62 19.69 7.66 19.69 11.34 0 16.59-13.6 9.3-18.45zm-9.37 15.53a10.93 10.93 0 0 1-5.47-1.27 19.74 19.74 0 0 0 1.9-2.7l6.38-11.05 1 .11c8.92 1.83 5.38 14.92-3.81 14.92zm4.08-17.27l3.06-5.25c2.77-4.78 6.31-2 4.41 1.6-1.45 2.73-3.6 3.57-7.47 3.65zm37.37 14c-.63 2.25.57 4.08 3.15 4.08 1.53 0 3.43-1 5.25-2.48.18 1.46 1.35 2.48 3.28 2.48s4.23-1.39 6.39-3.36c-.42 2 .54 3.36 2.41 3.36 2.08 0 4.41-1.9 6.24-3.65-.36 2 .84 3.65 3.25 3.65 3.14 0 6.75-3.35 9.88-7a1.56 1.56 0 0 0-.1-.15c2.1-2.44 3.95-5 5.27-6.78-1.5 3.94-.69 11-4.3 11a2.12 2.12 0 0 1-1.79-1.39l-2.38 1.24a4.14 4.14 0 0 0 4.16 3.06c.36 0 .69 0 1.06-.07h.11c2.79-.37 5.55-2.06 7.94-4.23.06 2.5 2 4.33 5.14 4.33 4.3 0 8.57-3.35 11.71-7a3.29 3.29 0 0 0-1.42-1.31l-.26.29c-2.73 3.17-6.24 5.69-8.9 5.69-2.33 0-3.72-1.46-2-4.52l.36-.66c2.44 1 7 .55 9.88-4.38l.55-.95c2-3.5.07-6.13-3-6.13a8 8 0 0 0-7.11 4.38l-3.68 6.32h-.1l-.26.29a23.7 23.7 0 0 1-4.56 4.12c1.2-3.61.95-9.15 3.28-14l-2.84-1.53c-1.57 2.15-5 7.11-8.42 11.12l.11.14-.14.15c-2.73 3.17-5.4 5.69-7.08 5.69-.84 0-1.31-.58-.44-2.08l8.1-14.19h-3.79l-6.75 11.78c-2.88 2.63-5.1 4.08-5.83 3.76-.95-.4 0-1.82.48-2.62l7.4-12.91h-3.79l-6 10.45a2.19 2.19 0 0 0-.29-.16l-.25.29c-2.73 3.17-5.4 5.69-7.08 5.69-.84 0-1.31-.58-.44-2.08l6.13-10.72h-2.15a3.94 3.94 0 0 0-4-3.83c-2 0-4.89 1.61-6.49 4.38l-3.85 6.64a2.85 2.85 0 0 0-.58-.36l-.26.29c-2.73 3.17-6.24 5.69-8.9 5.69-2.33 0-3.72-1.46-2-4.52l3.9-6.78c2.19-3.76 6.05-3.14 3.79.8l-.55.95h3.1l.55-.95c2-3.5.07-6.13-3-6.13a8 8 0 0 0-7.11 4.38l-3.76 6.43a2.41 2.41 0 0 0-.35-.19l-.26.29c-2.73 3.17-6.24 5.69-8.9 5.69-2.33 0-3.72-1.46-2-4.52l.36-.66c2.44 1 7 .55 9.88-4.37l.55-.95c2-3.5.07-6.13-3-6.13a8 8 0 0 0-7.11 4.38l-4 6.82c-2.37 4-.33 7.77 4.16 7.77 3.34 0 6.66-2 9.44-4.63-.1 2.65 1.87 4.63 5.14 4.63 3.14-.05 6.22-1.79 8.87-4.13zm58-9.56c2.19-3.76 6.05-3.14 3.79.8l-.55.95c-1.82 3.1-4.27 3-5.69 2.52zM144 299.67l5.29-9.23c2-3.54 6.09-2.63 4.23.8l-3 5.18c-2.3 3.61-4.56 5.32-6.13 5.32-.79 0-1.27-.58-.39-2.07zm-24.18-9.23c2.19-3.76 6.05-3.14 3.79.8l-.55.95c-1.82 3.1-4.27 3-5.69 2.52zm128.58 13.64c4.3 0 8.57-3.35 11.71-7a3.27 3.27 0 0 0-1.42-1.31l-.25.29c-2.74 3.17-6.24 5.69-8.9 5.69-2.33 0-3.72-1.46-2-4.52l.37-.66c2.44 1 7 .55 9.88-4.38l.55-.95c2-3.5.07-6.13-3-6.13a8 8 0 0 0-7.11 4.38l-3.69 6.34-.11-.06-.26.29c-2.73 3.17-5.4 5.69-7.07 5.69-.84 0-1.31-.58-.44-2.08l5.47-9.59c1.64-2.88.07-5-2-5-1.64 0-3.39.91-5.29 2.88l6.05-10.54H237L226.35 296a2.43 2.43 0 0 0-.43-.25l-.26.29c-2.74 3.17-5.4 5.69-7.08 5.69-.84 0-1.31-.58-.44-2.08l8.13-14.19h3.1l1.09-1.82h-3.14l3.57-6.2h-3.79l-3.57 6.2h-3.43l-1.1 1.84h3.46l-7.62 13.2c-1.6 2.81-.47 5.4 2.59 5.4 1.88 0 3.94-1.22 6-3l-1.5 2.61h3.83l5.76-10c5.84-7.33 8.42-6.38 6.78-3.57l-4.92 8.57c-1.6 2.81-.47 5.4 2.59 5.4 2.3 0 4.86-1.81 7.3-4.22.09 2.43 2.02 4.21 5.13 4.21zm3.06-13.64c2.19-3.76 6.06-3.14 3.79.8l-.55.95c-1.82 3.1-4.27 3-5.69 2.52zm111.96 5.33l-.26.29c-2.73 3.17-5.4 5.69-7.07 5.69-.84 0-1.31-.58-.44-2.08l12.84-22.21h-3.79l-5.58 9.63a4.11 4.11 0 0 0-3.47-2c-2 0-4.89 1.6-6.49 4.38l-3.71 6.41-.24-.13-.26.29c-2.73 3.17-5.4 5.69-7.07 5.69-.84 0-1.31-.58-.44-2.08l5.47-9.59c1.64-2.88.07-5-2-5-1.64 0-3.35.88-5.25 2.85l1.42-2.48h-3.79L327.18 296a2.57 2.57 0 0 0-.36-.2l-.26.29c-2.73 3.17-5.4 5.69-7.07 5.69-.84 0-1.31-.58-.44-2.08l6.13-10.72H323a3.94 3.94 0 0 0-4-3.83c-2 0-4.89 1.6-6.49 4.38l-3.67 6.33-.21.23c-2.73 3.17-5.4 5.69-7.07 5.69-.84 0-1.31-.58-.44-2.08L305 293c1.31-2.3.69-3.65-.55-5.14l-2.12-2.55a1.48 1.48 0 0 1 .22-2.19l-2-2.15c-2.15 1.93-2.33 4.08-1 5.83l.33.44c-1.68 2.37-3.94 5.58-6.42 8.5a3.42 3.42 0 0 0 .26.32c-3.12 3.59-5.78 5.92-8.76 7.19l4.81-8.24H286l-.4.66c-2 3.54-4.3 6.05-7.26 6.05-2.59 0-3.06-2.59-.8-6.46l1.06-1.86a13.62 13.62 0 0 0 2.15.18c13.49 0 20-18.05 8.13-18.05-2.08 0-4.56 1.46-6.27 4.45l-5.91 10.17a6.11 6.11 0 0 1-3.39-5.4 6 6 0 0 1 2.44-4.78l-1.24-2.23a8.36 8.36 0 0 0 .88 14.62l-1.13 2c-2.66 4.6-2.19 9.7 3.17 9.7a7.6 7.6 0 0 0 4.12-1.2l-1 1.71c-5.14 1.57-8.31 3.65-8.31 6.49 0 3.65 5.58 4.41 8.31-.25l2.92-5c3.94-1.24 7.81-3.94 12-8.75a2.3 2.3 0 0 0-.24-.36c1.68-2 3.11-3.89 6-7.78l.51.62a1.86 1.86 0 0 1 .22 2.15l-4 7c-1.61 2.81-.47 5.4 2.59 5.4 1.91 0 4-1.24 6-3 0 1.75 1.15 3 3.31 3 1.53 0 3.43-1 5.25-2.48.18 1.46 1.35 2.48 3.28 2.48s3.79-1.13 5.74-2.79l-1.4 2.42h3.83l5.8-10.1c5.8-7.26 8.39-6.31 6.75-3.5l-4.92 8.57c-1.6 2.81-.47 5.4 2.59 5.4 2 0 4.23-1.39 6.38-3.35-.2 1.9 1 3.35 3.29 3.35 1.53 0 3.43-1 5.25-2.48.18 1.46 1.35 2.48 3.28 2.48 3.14 0 6.75-3.35 9.88-7a3.3 3.3 0 0 0-1.44-1.32zm-78-14.15c1.13-1.93 2.37-2.77 3.43-2.77 6 0 1.79 12.25-8.13 12.25H280zm-8.06 28.59c-.8 1.42-2.08 1.2-2.08.18s.88-2.11 3.79-3.25zm39.69-13.78c-2.3 3.61-4.56 5.32-6.13 5.32-.84 0-1.31-.58-.44-2.08l5.29-9.23c2-3.54 6.09-2.62 4.23.8zm36.7-.22c-2.3 3.76-4.63 5.54-6.24 5.54-.84 0-1.31-.58-.44-2.08l5.29-9.23c2-3.54 6.09-2.62 4.23.8zm-117.04 35.55l-.25.29c-2.73 3.17-5.4 5.69-7.07 5.69-.84 0-1.31-.58-.44-2.08l5.47-9.59c1.64-2.88.07-5-2-5-1.64 0-3.35.88-5.25 2.84l1.42-2.48h-3.79L218.69 332a2.73 2.73 0 0 0-.48-.29l-.26.29a8.18 8.18 0 0 1-5.73 2.81l3.57-6.16c2.3-4 .18-7.73-3.39-7.73-2.92 0-5.18 1.17-7.37 5l-1.86 3.25-1.67 2.83a2.5 2.5 0 0 0-.34-.19l-.26.29c-3.14 3.61-5.8 5.94-8.79 7.22l10.39-17.8h-3.79L192 333.15c-2.92 2.7-5.18 4.19-5.91 3.86-.95-.4 0-1.82.47-2.62l7.4-12.91h-3.79L184.13 332a2.53 2.53 0 0 0-.33-.19l-.25.29c-2.73 3.17-5.4 5.69-7.07 5.69-.84 0-1.31-.58-.44-2.08l5.47-9.59c1.64-2.88.07-5-2-5-1.64 0-3.35.88-5.25 2.84l1.42-2.48h-3.79L165.78 332a2.62 2.62 0 0 0-.36-.2l-.25.29c-2.73 3.17-5.4 5.69-7.08 5.69-.84 0-1.31-.58-.44-2.08l6.13-10.72h-2.15a3.94 3.94 0 0 0-4-3.83c-2 0-4.89 1.6-6.49 4.38l-3.92 6.76a2.16 2.16 0 0 0-.83-.49l-.26.29c-2.73 3.17-6.09 5.69-9.85 5.69-2.59 0-4.16-2.59-1.9-6.45l1.06-1.86a13.64 13.64 0 0 0 2.15.18c4 0 8.64-2.08 11.63-7.29a10.51 10.51 0 0 0 1.53-5.1c0-3.43-2.23-5.65-5-5.65-2.08 0-4.56 1.46-6.27 4.45l-5.91 10.18a6.11 6.11 0 0 1-3.39-5.4 6 6 0 0 1 2.44-4.78l-1.24-2.23a8.36 8.36 0 0 0 .88 14.62l-1.13 2c-2.66 4.6-1.09 9.7 4.27 9.7 4.24 0 7.35-1.89 10-4.37-.83 2.38.37 4.37 3.06 4.37 1.53 0 3.43-1 5.25-2.48.18 1.46 1.35 2.48 3.28 2.48s3.79-1.13 5.74-2.78l-1.4 2.42h3.83l5.8-10.1c5.8-7.26 8.39-6.31 6.75-3.5l-4.92 8.57c-1.6 2.81-.47 5.4 2.59 5.4 2 0 4.28-1.42 6.47-3.42-.46 2.09.51 3.42 2.4 3.42s3.9-1.53 5.62-3.06l-2.08 3.57c-5.14 1.53-8.35 3.65-8.35 6.49 0 3.65 5.58 4.41 8.31-.25l2.92-5a23.92 23.92 0 0 0 9.56-6.2c-.52 5.3 6.53 6.5 10.79 1.13h.84a11.07 11.07 0 0 0 5-1.46l-2.55 4.41H218l5.8-10.1c5.8-7.26 8.39-6.31 6.75-3.5l-4.92 8.57c-1.6 2.81-.48 5.4 2.59 5.4s6.75-3.35 9.88-7a3.29 3.29 0 0 0-1.39-1.4zm-94.39-14.15c1.13-1.93 2.37-2.77 3.43-2.77 1.42 0 2.08.95 2.08 2.33 0 3.54-4.3 9.92-10.21 9.92h-.77zm13.36 14.81c-2.3 3.61-4.56 5.32-6.13 5.32-.84 0-1.31-.58-.44-2.08l5.29-9.23c2-3.54 6.09-2.62 4.23.8zm28.85 13.78c-.8 1.42-2.08 1.2-2.08.18s.91-2.11 3.83-3.25zm25.53-14.2h-.18a2.24 2.24 0 0 0-2.23 2.26 2.47 2.47 0 0 0 .37 1.27v.07c-1.79 3.06-6.13 2.48-3.87-1.46l2.88-5 1.82-3.1c2.66-4.52 6.31-2.73 4 1.2zm114.56 1.08a2.4 2.4 0 0 0-1.42-1.31l-.26.29a23.62 23.62 0 0 1-4.56 4.12c1.2-3.61.95-9.15 3.28-14l-2.85-1.53c-1.57 2.15-5 7.11-8.42 11.12l-.25.29c-2.74 3.17-5.4 5.69-7.08 5.69-.84 0-1.64-.84-1.64-2.55v-1.57c2.66.33 5.47-1.42 7.26-4.52l1-1.75c3.54-6.05-2.23-8.06-6.09-4.52l5.4-9.37h-3.79l-10.82 18.77a3.06 3.06 0 0 0-.69-.46l-.26.29c-2.73 3.17-6.24 5.69-8.9 5.69-2.33 0-3.72-1.46-2-4.52l3.9-6.78c2.19-3.76 6.05-3.14 3.79.8l-.55.95h3.1l.55-.95c2-3.5.07-6.13-3-6.13a8 8 0 0 0-7.11 4.38l-3.73 6.4-.23-.13-.26.29c-2.73 3.17-5.4 5.69-7.07 5.69-.84 0-1.31-.58-.44-2.08l8.1-14.19h-3.79L269 333.26c-2.88 2.63-5.1 4.08-5.84 3.76-.95-.4 0-1.82.47-2.62l7.4-12.91h-3.79l-7.37 12.74a22.67 22.67 0 0 1-2.45 2c1.2-3.61.95-9.15 3.28-14l-2.84-1.53c-1.57 2.15-10.32 13.75-13.75 17.76a5.5 5.5 0 0 0 1.42 1.31c2.15-2.48 9.37-11.78 10.72-13.57-1.5 3.94-.69 11-4.3 11a2.12 2.12 0 0 1-1.79-1.39l-2.32 1.19a4.13 4.13 0 0 0 4.16 3.06 10.43 10.43 0 0 0 1.06-.07h.11a13.17 13.17 0 0 0 5.63-2.38 2.29 2.29 0 0 0 2.51 2.49c2.08 0 4.41-1.9 6.23-3.65-.36 2 .84 3.65 3.25 3.65s5-1.89 7.47-4.38c0 2.52 2 4.38 5.14 4.38s6.14-1.72 8.78-4l-2.11 3.67h3.83l4.34-7.55v3c0 3.24.62 4.89 3.68 4.89s6.75-3.35 9.88-7c2.15-2.48 4-5.14 5.4-6.93-1.49 3.94-.69 11-4.3 11a2.12 2.12 0 0 1-1.79-1.39l-2.35 1.21a4.14 4.14 0 0 0 4.16 3.06A10.58 10.58 0 0 0 314 340h.11c3.84-.54 7.67-3.6 10.51-6.92zm-25.19-3l1.09-1.9c4.38-6.09 7.37-4.41 6-2.12l-1.82 3.14c-1.11 1.98-4.43 3.37-5.27.89zm25.04 5.58a2.18 2.18 0 0 0-2.19 2.23 2.15 2.15 0 0 0 2.19 2.19 2.18 2.18 0 0 0 2.22-2.19 2.21 2.21 0 0 0-2.22-2.23zm.18-1.49h3.84l11.88-20.71h-3.79l-11.93 20.71zM80.41 277.58a2.47 2.47 0 0 1-.17.88 2.4 2.4 0 0 1-.51.8 2.6 2.6 0 0 1-.83.57 2.65 2.65 0 0 1-1.1.22 3.44 3.44 0 0 1-1.3-.25 3 3 0 0 1-1.06-.73 3.1 3.1 0 0 1-.57-1 4 4 0 0 1-.2-1.29 5.92 5.92 0 0 1 1.76-4.3 5.77 5.77 0 0 1 .85-.69 9.14 9.14 0 0 1 .9-.54l.73-.35.37-.17 1.35 2c-.25.09-.52.21-.83.35a4.63 4.63 0 0 0-.86.54 3 3 0 0 0-.68.76 2.15 2.15 0 0 0-.3 1 2.74 2.74 0 0 1 1.73.58 2 2 0 0 1 .72 1.62zm7.87 0a2.42 2.42 0 0 1-.17.88 2.38 2.38 0 0 1-.51.8 2.58 2.58 0 0 1-.83.57 2.66 2.66 0 0 1-1.1.22 3.43 3.43 0 0 1-1.3-.25 2.94 2.94 0 0 1-1.07-.73 3.15 3.15 0 0 1-.57-1 4.05 4.05 0 0 1-.2-1.29 5.92 5.92 0 0 1 1.76-4.3 5.6 5.6 0 0 1 .85-.69 9 9 0 0 1 .9-.54l.73-.35.37-.17 1.35 2c-.25.09-.52.21-.83.35a4.57 4.57 0 0 0-.86.54 2.88 2.88 0 0 0-.68.76 2.13 2.13 0 0 0-.31 1 2.74 2.74 0 0 1 1.73.57 2 2 0 0 1 .74 1.63zm265.16 58.94a2.46 2.46 0 0 1 .17-.88 2.4 2.4 0 0 1 .51-.8 2.58 2.58 0 0 1 .83-.57 2.66 2.66 0 0 1 1.1-.22 3.45 3.45 0 0 1 1.3.25 2.92 2.92 0 0 1 1.06.73 3.11 3.11 0 0 1 .58 1 4.06 4.06 0 0 1 .2 1.29 5.91 5.91 0 0 1-1.76 4.3 5.66 5.66 0 0 1-.85.69 8.11 8.11 0 0 1-.9.54c-.28.15-.52.27-.73.35l-.37.17-1.35-2c.25-.09.52-.21.83-.35a4.6 4.6 0 0 0 .86-.54 2.92 2.92 0 0 0 .68-.76 2.13 2.13 0 0 0 .3-1 2.73 2.73 0 0 1-1.72-.58 2 2 0 0 1-.74-1.62zm-7.87 0a2.42 2.42 0 0 1 .17-.88 2.39 2.39 0 0 1 .51-.8 2.59 2.59 0 0 1 .83-.57 2.66 2.66 0 0 1 1.1-.22 3.46 3.46 0 0 1 1.3.25 2.94 2.94 0 0 1 1.06.73 3.14 3.14 0 0 1 .57 1 4 4 0 0 1 .2 1.29 5.92 5.92 0 0 1-1.76 4.3 5.74 5.74 0 0 1-.85.69 9.34 9.34 0 0 1-.9.54c-.28.15-.52.27-.73.35l-.37.17-1.36-2c.25-.09.53-.21.83-.35a4.56 4.56 0 0 0 .86-.54 2.94 2.94 0 0 0 .68-.76 2.16 2.16 0 0 0 .3-1 2.75 2.75 0 0 1-1.73-.58 2 2 0 0 1-.71-1.62z"/></g></svg>